<?xml version="1.0" encoding="UTF-8"?>
<svg xmlns="http://www.w3.org/2000/svg" xmlns:xlink="http://www.w3.org/1999/xlink" viewBox="0 0 160 62" version="1.1">
<g id="surface1">
<path style=" stroke:none;fill-rule:nonzero;fill:rgb(29.019608%,21.960784%,22.745098%);fill-opacity:1;" d="M 11.609375 37.398438 L 11.609375 24.601562 L 17.480469 24.601562 C 21.390625 24.601562 25.820312 26.570312 25.820312 31.011719 C 25.820312 35.398438 21.398438 37.390625 17.480469 37.390625 L 11.609375 37.390625 Z M 13.570312 25.039062 L 13.570312 36.898438 L 17.5 36.898438 C 21.589844 36.878906 23.761719 34.300781 23.800781 31.070312 C 23.78125 27.761719 21.53125 25 17.480469 25.039062 Z M 13.570312 25.039062 "/>
<path style=" stroke:none;fill-rule:nonzero;fill:rgb(29.019608%,21.960784%,22.745098%);fill-opacity:1;" d="M 33.238281 24.601562 L 35.199219 24.601562 L 35.199219 37.390625 L 33.238281 37.390625 Z M 33.238281 24.601562 "/>
<path style=" stroke:none;fill-rule:nonzero;fill:rgb(29.019608%,21.960784%,22.745098%);fill-opacity:1;" d="M 56.359375 24.621094 L 49.511719 37.398438 L 42.621094 24.601562 L 44.75 24.601562 L 50.058594 34.269531 L 50.390625 34.269531 L 55.671875 24.621094 Z M 56.359375 24.621094 "/>
<path style=" stroke:none;fill-rule:nonzero;fill:rgb(29.019608%,21.960784%,22.745098%);fill-opacity:1;" d="M 63.78125 24.601562 L 65.738281 24.601562 L 65.738281 37.390625 L 63.78125 37.390625 Z M 63.78125 24.601562 "/>
<path style=" stroke:none;fill-rule:nonzero;fill:rgb(29.019608%,21.960784%,22.745098%);fill-opacity:1;" d="M 87 35.441406 L 87.191406 35.441406 L 87.191406 24.601562 L 87.78125 24.601562 L 87.78125 37.398438 L 86.210938 37.398438 L 75.199219 25.148438 L 74.941406 25.148438 L 74.941406 37.398438 L 74.351562 37.398438 L 74.351562 24.601562 L 77.269531 24.601562 Z M 87 35.441406 "/>
<path style=" stroke:none;fill-rule:nonzero;fill:rgb(29.019608%,21.960784%,22.745098%);fill-opacity:1;" d="M 105.140625 32.070312 L 98.839844 32.070312 L 95.460938 37.390625 L 94.78125 37.390625 L 102.691406 24.601562 L 102.890625 24.601562 L 110.820312 37.390625 L 108.550781 37.390625 Z M 101.769531 27.160156 L 99.148438 31.519531 L 104.808594 31.519531 L 102.210938 27.160156 Z M 101.769531 27.160156 "/>
<path style=" stroke:none;fill-rule:nonzero;fill:rgb(29.019608%,21.960784%,22.745098%);fill-opacity:1;" d="M 124.339844 32.078125 L 120.171875 32.078125 L 120.171875 37.390625 L 118.210938 37.390625 L 118.210938 24.601562 L 127.800781 24.601562 C 129.519531 24.601562 130.929688 26.589844 130.929688 28.199219 C 130.929688 29.808594 129.519531 32.078125 127.800781 32.078125 L 126.570312 32.078125 L 131.890625 37.390625 L 129.621094 37.390625 Z M 120.171875 31.539062 L 126.078125 31.539062 C 128.171875 31.539062 129.25 29.570312 129.25 28.351562 C 129.25 27.160156 127.988281 25.160156 126.140625 25.160156 L 120.171875 25.160156 Z M 120.171875 31.539062 "/>
<path style=" stroke:none;fill-rule:nonzero;fill:rgb(29.019608%,21.960784%,22.745098%);fill-opacity:1;" d="M 149.050781 31.539062 L 149.050781 32.078125 L 141.339844 32.078125 L 141.339844 36.851562 L 151.609375 36.851562 L 151.269531 37.398438 L 139.378906 37.398438 L 139.378906 24.601562 L 150.820312 24.601562 L 150.488281 25.148438 L 141.339844 25.148438 L 141.339844 31.539062 Z M 149.050781 31.539062 "/>
</g>
</svg>
