<?xml version="1.0" encoding="utf-8"?>
<!-- Generator: Adobe Illustrator 19.1.1, SVG Export Plug-In . SVG Version: 6.00 Build 0)  -->
<svg version="1.1" id="Layer_1" xmlns="http://www.w3.org/2000/svg" xmlns:xlink="http://www.w3.org/1999/xlink" x="0px" y="0px"
	 viewBox="0 0 229.8 75.4" style="enable-background:new 0 0 229.8 75.4;" xml:space="preserve">
<style type="text/css">
	.st0{fill:#ffffff;}
	.st1{fill:#FDE15C;enable-background:new;}
</style>
<path class="st0" d="M80.2,65.5c0.3,0.1,0.4,0.3,0.4,0.5c0,0.2-0.1,0.4-0.2,0.6c-0.6,0.6-1.3,0.9-2.2,0.9c-0.9,0-1.7-0.3-2.4-1
	c-0.1-0.1-0.1-0.1-0.2-0.3c-0.1-0.1-0.3-0.2-0.4-0.2s-0.3,0.1-0.5,0.2c-0.1,0.1-0.2,0.3-0.2,0.5c0,0.1,0,0.3,0.1,0.4
	c1,1.1,2.2,1.7,3.6,1.7c1.3,0,2.4-0.4,3.2-1.2c0.4-0.4,0.6-0.9,0.6-1.5c0-0.6-0.2-1-0.6-1.4c-0.2-0.2-0.6-0.4-1.1-0.6l-4.2-1.4
	c-0.3-0.1-0.4-0.3-0.4-0.5c0-0.2,0.1-0.4,0.2-0.6c0.6-0.6,1.3-0.9,2.2-0.9c0.9,0,1.7,0.3,2.4,1c0.1,0.1,0.1,0.1,0.2,0.3
	c0.1,0.1,0.3,0.2,0.4,0.2c0.2,0,0.3-0.1,0.5-0.2c0.1-0.1,0.2-0.3,0.2-0.5c0-0.2,0-0.3-0.1-0.4c-1-1.1-2.2-1.7-3.6-1.7
	c-1.3,0-2.4,0.4-3.2,1.2c-0.4,0.4-0.6,0.9-0.6,1.5c0,0.6,0.2,1,0.6,1.4c0.2,0.2,0.6,0.4,1.1,0.6L80.2,65.5z"/>
<path class="st0" d="M88.7,59.9l-2,6.1l-2.1-6.3c0-0.1-0.1-0.1-0.1-0.2c-0.1-0.1-0.3-0.2-0.5-0.2c-0.2,0-0.3,0.1-0.5,0.2
	c-0.1,0.1-0.2,0.3-0.2,0.5c0,0.1,0,0.2,0.1,0.3l2.7,8.1c0,0.1,0.1,0.2,0.2,0.2c0.1,0.1,0.3,0.2,0.5,0.2c0.2,0,0.3-0.1,0.5-0.2
	c0.1-0.1,0.1-0.2,0.2-0.2l2.1-6.2l2.1,6.2c0,0.1,0.1,0.2,0.2,0.2c0.1,0.1,0.3,0.2,0.5,0.2c0.2,0,0.3-0.1,0.5-0.2
	c0.1-0.1,0.1-0.2,0.2-0.2l2.7-8.1c0-0.1,0.1-0.2,0.1-0.3c0-0.2-0.1-0.3-0.2-0.5c-0.1-0.1-0.3-0.2-0.5-0.2c-0.2,0-0.3,0.1-0.5,0.2
	c-0.1,0.1-0.1,0.1-0.1,0.2L92.1,66l-2-6.1c0-0.1-0.1-0.2-0.2-0.3c-0.1-0.1-0.3-0.2-0.5-0.2c-0.2,0-0.3,0.1-0.5,0.2
	C88.8,59.7,88.8,59.8,88.7,59.9L88.7,59.9z"/>
<path class="st0" d="M98.8,56.8c-0.2-0.2-0.4-0.2-0.6-0.2c-0.2,0-0.4,0.1-0.6,0.2c-0.2,0.2-0.2,0.4-0.2,0.6c0,0.2,0.1,0.4,0.2,0.6
	c0.2,0.2,0.4,0.2,0.6,0.2c0.2,0,0.4-0.1,0.6-0.2c0.2-0.2,0.2-0.4,0.2-0.6C99,57.1,98.9,56.9,98.8,56.8z M97.5,68.2
	c0,0.2,0.1,0.3,0.2,0.5c0.1,0.1,0.3,0.2,0.5,0.2c0.2,0,0.3-0.1,0.5-0.2c0.1-0.1,0.2-0.3,0.2-0.5v-8.1c0-0.2-0.1-0.3-0.2-0.5
	c-0.1-0.1-0.3-0.2-0.5-0.2c-0.2,0-0.3,0.1-0.5,0.2c-0.1,0.1-0.2,0.3-0.2,0.5V68.2z"/>
<path class="st0" d="M103.6,65.5v-4.7h1.4c0.2,0,0.3-0.1,0.5-0.2c0.1-0.1,0.2-0.3,0.2-0.5c0-0.2-0.1-0.3-0.2-0.5
	c-0.1-0.1-0.3-0.2-0.5-0.2h-1.4V56c0-0.2-0.1-0.3-0.2-0.5c-0.1-0.1-0.3-0.2-0.5-0.2c-0.2,0-0.3,0.1-0.5,0.2
	c-0.1,0.1-0.2,0.3-0.2,0.5v3.4h-0.7c-0.2,0-0.3,0.1-0.5,0.2c-0.1,0.1-0.2,0.3-0.2,0.5c0,0.2,0.1,0.3,0.2,0.5
	c0.1,0.1,0.3,0.2,0.5,0.2h0.7v4.7c0,2.3,1.1,3.4,3.4,3.4c0.2,0,0.3-0.1,0.5-0.2c0.1-0.1,0.2-0.3,0.2-0.5c0-0.2-0.1-0.3-0.2-0.5
	c-0.1-0.1-0.3-0.2-0.5-0.2C104.2,67.5,103.6,66.8,103.6,65.5L103.6,65.5z"/>
<path class="st0" d="M114,66.7c-0.6,0.6-1.4,0.8-2.2,0.8c-0.9,0-1.7-0.3-2.4-1c-0.7-0.7-1-1.5-1-2.4c0-0.9,0.3-1.7,1-2.4
	c0.7-0.7,1.5-1,2.4-1c0.8,0,1.6,0.3,2.2,0.8c0.1,0.1,0.3,0.2,0.4,0.2c0.2,0,0.3-0.1,0.5-0.2c0.1-0.1,0.2-0.3,0.2-0.5
	c0-0.2-0.1-0.4-0.2-0.5c-0.9-0.8-1.9-1.1-3.1-1.1c-1.3,0-2.4,0.5-3.3,1.4c-0.9,0.9-1.4,2-1.4,3.3c0,1.3,0.5,2.4,1.4,3.3
	c0.9,0.9,2,1.4,3.3,1.4c1.2,0,2.2-0.4,3.1-1.1c0.1-0.1,0.2-0.3,0.2-0.5s-0.1-0.3-0.2-0.5c-0.1-0.1-0.3-0.2-0.5-0.2
	C114.3,66.5,114.2,66.6,114,66.7L114,66.7z"/>
<path class="st0" d="M116.6,68.2c0,0.2,0.1,0.3,0.2,0.5c0.1,0.1,0.3,0.2,0.5,0.2c0.2,0,0.3-0.1,0.5-0.2c0.1-0.1,0.2-0.3,0.2-0.5
	v-4.4c0-0.8,0.3-1.6,0.9-2.1c0.6-0.6,1.3-0.9,2.1-0.9c0.8,0,1.6,0.3,2.1,0.9c0.6,0.6,0.9,1.3,0.9,2.1v4.4c0,0.2,0.1,0.3,0.2,0.5
	c0.1,0.1,0.3,0.2,0.5,0.2c0.2,0,0.3-0.1,0.5-0.2c0.1-0.1,0.2-0.3,0.2-0.5v-4.4c0-1.2-0.4-2.2-1.3-3.1c-0.9-0.9-1.9-1.3-3.1-1.3
	c-1.2,0-2.2,0.4-3,1.2V56c0-0.2-0.1-0.3-0.2-0.5c-0.1-0.1-0.3-0.2-0.5-0.2c-0.2,0-0.3,0.1-0.5,0.2c-0.1,0.1-0.2,0.3-0.2,0.5V68.2z"
	/>
<path class="st0" d="M128.1,63.4c0.1-0.6,0.4-1.2,0.9-1.7c0.7-0.7,1.5-1,2.4-1c0.9,0,1.7,0.3,2.4,1c0.5,0.5,0.8,1.1,0.9,1.7H128.1z
	 M133.6,66.7c-0.6,0.5-1.3,0.8-2.2,0.8c-0.9,0-1.7-0.3-2.4-1c-0.5-0.5-0.8-1.1-0.9-1.7h7.4c0.2,0,0.3-0.1,0.5-0.2
	c0.1-0.1,0.2-0.3,0.2-0.5c0-1.3-0.5-2.4-1.4-3.3c-0.9-0.9-2-1.4-3.3-1.4c-1.3,0-2.4,0.5-3.3,1.4c-0.9,0.9-1.4,2-1.4,3.3
	c0,1.3,0.5,2.4,1.4,3.3c0.9,0.9,2,1.4,3.3,1.4c1.2,0,2.2-0.4,3.1-1.1c0.1-0.1,0.2-0.3,0.2-0.5c0-0.2-0.1-0.3-0.2-0.5
	c-0.1-0.1-0.3-0.2-0.5-0.2C133.9,66.5,133.7,66.6,133.6,66.7L133.6,66.7z"/>
<path class="st0" d="M143.3,65.5c0.3,0.1,0.4,0.3,0.4,0.5c0,0.2-0.1,0.4-0.2,0.6c-0.6,0.6-1.3,0.9-2.2,0.9c-0.9,0-1.7-0.3-2.4-1
	c-0.1-0.1-0.1-0.1-0.2-0.3c-0.1-0.1-0.3-0.2-0.4-0.2c-0.2,0-0.3,0.1-0.5,0.2c-0.1,0.1-0.2,0.3-0.2,0.5c0,0.1,0,0.3,0.1,0.4
	c1,1.1,2.2,1.7,3.6,1.7c1.3,0,2.4-0.4,3.2-1.2c0.4-0.4,0.6-0.9,0.6-1.5c0-0.6-0.2-1-0.6-1.4c-0.2-0.2-0.6-0.4-1.1-0.6l-4.2-1.4
	c-0.3-0.1-0.4-0.3-0.4-0.5c0-0.2,0.1-0.4,0.2-0.6c0.6-0.6,1.3-0.9,2.2-0.9c0.9,0,1.7,0.3,2.4,1c0.1,0.1,0.1,0.1,0.2,0.3
	c0.1,0.1,0.3,0.2,0.4,0.2c0.2,0,0.3-0.1,0.5-0.2c0.1-0.1,0.2-0.3,0.2-0.5c0-0.2,0-0.3-0.1-0.4c-1-1.1-2.2-1.7-3.6-1.7
	c-1.3,0-2.4,0.4-3.2,1.2c-0.4,0.4-0.6,0.9-0.6,1.5c0,0.6,0.2,1,0.6,1.4c0.2,0.2,0.6,0.4,1.1,0.6L143.3,65.5z"/>
<path class="st0" d="M153.5,58.4c0-0.5,0.2-0.9,0.5-1.2c0.3-0.3,0.7-0.5,1.2-0.5c0.5,0,0.9,0.2,1.2,0.5c0.3,0.3,0.5,0.7,0.5,1.2
	c0,0.5-0.3,1-0.8,1.5l-1,0.8l-1-1.1C153.7,59.2,153.5,58.8,153.5,58.4L153.5,58.4z M156.9,66.8c-0.5,0.5-1,0.7-1.7,0.7
	c-0.7,0-1.2-0.2-1.7-0.7c-0.5-0.5-0.7-1.1-0.7-1.8c0-0.7,0.4-1.3,1.1-1.8l1-0.7l3.1,3.1L156.9,66.8z M157,60.8
	c0.8-0.7,1.2-1.5,1.2-2.4c0-0.8-0.3-1.6-0.9-2.1c-0.6-0.6-1.3-0.9-2.1-0.9c-0.8,0-1.6,0.3-2.1,0.9c-0.6,0.6-0.9,1.3-0.9,2.1
	c0,0.8,0.3,1.6,0.9,2.2l0.9,0.9l-0.9,0.7c-1.1,0.8-1.6,1.8-1.6,2.8c0,1.1,0.4,2.1,1.1,2.8c0.7,0.7,1.6,1.1,2.6,1.1
	c1,0,1.9-0.4,2.6-1.1l1.2-1.2l2.1,2.2c0.1,0.1,0.3,0.2,0.5,0.2c0.2,0,0.3-0.1,0.5-0.2c0.1-0.1,0.2-0.3,0.2-0.5
	c0-0.2-0.1-0.3-0.2-0.5l-2.2-2.2l1.5-1.6c0.1-0.1,0.2-0.3,0.2-0.5c0-0.2-0.1-0.3-0.2-0.5c-0.1-0.1-0.3-0.2-0.5-0.2
	c-0.2,0-0.3,0.1-0.5,0.2l-1.5,1.6l-3-3L157,60.8z"/>
<path class="st0" d="M168.7,68.2c0,0.2,0.1,0.3,0.2,0.5c0.1,0.1,0.3,0.2,0.5,0.2h1.3c0.2,0,0.3-0.1,0.5-0.2c0.1-0.1,0.2-0.3,0.2-0.5
	c0-0.2-0.1-0.3-0.2-0.5c-0.1-0.1-0.3-0.2-0.5-0.2h-0.7V56c0-0.2-0.1-0.3-0.2-0.5c-0.1-0.1-0.3-0.2-0.5-0.2c-0.2,0-0.3,0.1-0.5,0.2
	c-0.1,0.1-0.2,0.3-0.2,0.5V68.2z"/>
<path class="st0" d="M174.7,56.8c-0.2-0.2-0.4-0.2-0.6-0.2c-0.2,0-0.4,0.1-0.6,0.2c-0.2,0.2-0.2,0.4-0.2,0.6c0,0.2,0.1,0.4,0.2,0.6
	c0.2,0.2,0.4,0.2,0.6,0.2c0.2,0,0.4-0.1,0.6-0.2c0.2-0.2,0.2-0.4,0.2-0.6C175,57.1,174.9,56.9,174.7,56.8z M173.4,68.2
	c0,0.2,0.1,0.3,0.2,0.5c0.1,0.1,0.3,0.2,0.5,0.2c0.2,0,0.3-0.1,0.5-0.2c0.1-0.1,0.2-0.3,0.2-0.5v-8.1c0-0.2-0.1-0.3-0.2-0.5
	c-0.1-0.1-0.3-0.2-0.5-0.2c-0.2,0-0.3,0.1-0.5,0.2c-0.1,0.1-0.2,0.3-0.2,0.5V68.2z"/>
<path class="st0" d="M183.9,61.7c0.7,0.7,1,1.5,1,2.4c0,0.9-0.3,1.7-1,2.4c-0.7,0.7-1.5,1-2.4,1c-0.9,0-1.7-0.3-2.4-1
	c-0.7-0.7-1-1.5-1-2.4c0-0.9,0.3-1.7,1-2.4c0.7-0.7,1.5-1,2.4-1C182.5,60.7,183.3,61.1,183.9,61.7z M184.9,68.8
	c0,0.5-0.2,1.1-0.7,1.6c-0.7,0.7-1.6,1.1-2.6,1.1c-1,0-1.9-0.4-2.6-1.1c-0.3-0.3-0.5-0.5-0.6-0.9c0-0.1-0.1-0.1-0.1-0.2
	c-0.1-0.1-0.3-0.2-0.5-0.2c-0.2,0-0.3,0.1-0.5,0.2c-0.1,0.1-0.2,0.3-0.2,0.5c0,0.1,0,0.3,0.1,0.4c0.2,0.4,0.5,0.8,0.9,1.2
	c1,1,2.2,1.5,3.6,1.5s2.6-0.5,3.6-1.5c0.7-0.7,1.1-1.6,1.1-2.6v-4.7c0-1.3-0.5-2.4-1.4-3.3c-0.9-0.9-2-1.4-3.3-1.4
	c-1.3,0-2.4,0.5-3.3,1.4c-0.9,0.9-1.4,2-1.4,3.3c0,1.3,0.5,2.4,1.4,3.3c0.9,0.9,2,1.4,3.3,1.4c1.3,0,2.4-0.5,3.3-1.4c0,0,0,0,0,0
	V68.8z"/>
<path class="st0" d="M187.6,68.2c0,0.2,0.1,0.3,0.2,0.5c0.1,0.1,0.3,0.2,0.5,0.2c0.2,0,0.3-0.1,0.5-0.2c0.1-0.1,0.2-0.3,0.2-0.5
	v-4.4c0-0.8,0.3-1.6,0.9-2.1c0.6-0.6,1.3-0.9,2.1-0.9c0.8,0,1.6,0.3,2.1,0.9c0.6,0.6,0.9,1.3,0.9,2.1v4.4c0,0.2,0.1,0.3,0.2,0.5
	c0.1,0.1,0.3,0.2,0.5,0.2c0.2,0,0.3-0.1,0.5-0.2c0.1-0.1,0.2-0.3,0.2-0.5v-4.4c0-1.2-0.4-2.2-1.3-3.1c-0.9-0.9-1.9-1.3-3.1-1.3
	c-1.2,0-2.2,0.4-3,1.2V56c0-0.2-0.1-0.3-0.2-0.5c-0.1-0.1-0.3-0.2-0.5-0.2c-0.2,0-0.3,0.1-0.5,0.2c-0.1,0.1-0.2,0.3-0.2,0.5V68.2z"
	/>
<path class="st0" d="M200.4,65.5v-4.7h1.4c0.2,0,0.3-0.1,0.5-0.2c0.1-0.1,0.2-0.3,0.2-0.5c0-0.2-0.1-0.3-0.2-0.5
	c-0.1-0.1-0.3-0.2-0.5-0.2h-1.4V56c0-0.2-0.1-0.3-0.2-0.5c-0.1-0.1-0.3-0.2-0.5-0.2c-0.2,0-0.3,0.1-0.5,0.2
	c-0.1,0.1-0.2,0.3-0.2,0.5v3.4h-0.7c-0.2,0-0.3,0.1-0.5,0.2c-0.1,0.1-0.2,0.3-0.2,0.5c0,0.2,0.1,0.3,0.2,0.5
	c0.1,0.1,0.3,0.2,0.5,0.2h0.7v4.7c0,2.3,1.1,3.4,3.4,3.4c0.2,0,0.3-0.1,0.5-0.2c0.1-0.1,0.2-0.3,0.2-0.5c0-0.2-0.1-0.3-0.2-0.5
	c-0.1-0.1-0.3-0.2-0.5-0.2C201.1,67.5,200.4,66.8,200.4,65.5L200.4,65.5z"/>
<path class="st0" d="M206.4,56.8c-0.2-0.2-0.4-0.2-0.6-0.2c-0.2,0-0.4,0.1-0.6,0.2c-0.2,0.2-0.2,0.4-0.2,0.6c0,0.2,0.1,0.4,0.2,0.6
	c0.2,0.2,0.4,0.2,0.6,0.2c0.2,0,0.4-0.1,0.6-0.2c0.2-0.2,0.2-0.4,0.2-0.6C206.7,57.1,206.6,56.9,206.4,56.8z M205.2,68.2
	c0,0.2,0.1,0.3,0.2,0.5c0.1,0.1,0.3,0.2,0.5,0.2c0.2,0,0.3-0.1,0.5-0.2c0.1-0.1,0.2-0.3,0.2-0.5v-8.1c0-0.2-0.1-0.3-0.2-0.5
	c-0.1-0.1-0.3-0.2-0.5-0.2c-0.2,0-0.3,0.1-0.5,0.2c-0.1,0.1-0.2,0.3-0.2,0.5V68.2z"/>
<path class="st0" d="M208.5,68.2c0,0.2,0.1,0.3,0.2,0.5c0.1,0.1,0.3,0.2,0.5,0.2c0.2,0,0.3-0.1,0.5-0.2c0.1-0.1,0.2-0.3,0.2-0.5
	v-4.4c0-0.8,0.3-1.6,0.9-2.1c0.6-0.6,1.3-0.9,2.1-0.9c0.8,0,1.6,0.3,2.1,0.9c0.6,0.6,0.9,1.3,0.9,2.1v4.4c0,0.2,0.1,0.3,0.2,0.5
	c0.1,0.1,0.3,0.2,0.5,0.2c0.2,0,0.3-0.1,0.5-0.2c0.1-0.1,0.2-0.3,0.2-0.5v-4.4c0-1.2-0.4-2.2-1.3-3.1c-0.9-0.9-1.9-1.3-3.1-1.3
	c-1.2,0-2.2,0.4-3,1.2v-0.5c0-0.2-0.1-0.3-0.2-0.5c-0.1-0.1-0.3-0.2-0.5-0.2c-0.2,0-0.3,0.1-0.5,0.2c-0.1,0.1-0.2,0.3-0.2,0.5V68.2z
	"/>
<path class="st0" d="M225.8,61.7c0.7,0.7,1,1.5,1,2.4c0,0.9-0.3,1.7-1,2.4c-0.7,0.7-1.5,1-2.4,1c-0.9,0-1.7-0.3-2.4-1
	c-0.7-0.7-1-1.5-1-2.4c0-0.9,0.3-1.7,1-2.4c0.7-0.7,1.5-1,2.4-1C224.3,60.7,225.1,61.1,225.8,61.7z M226.8,68.8
	c0,0.5-0.2,1.1-0.7,1.6c-0.7,0.7-1.6,1.1-2.6,1.1c-1,0-1.9-0.4-2.6-1.1c-0.3-0.3-0.5-0.5-0.6-0.9c0-0.1-0.1-0.1-0.1-0.2
	c-0.1-0.1-0.3-0.2-0.5-0.2c-0.2,0-0.3,0.1-0.5,0.2c-0.1,0.1-0.2,0.3-0.2,0.5c0,0.1,0,0.3,0.1,0.4c0.2,0.4,0.5,0.8,0.9,1.2
	c1,1,2.2,1.5,3.6,1.5c1.4,0,2.6-0.5,3.6-1.5c0.7-0.7,1.1-1.6,1.1-2.6v-4.7c0-1.3-0.5-2.4-1.4-3.3c-0.9-0.9-2-1.4-3.3-1.4
	c-1.3,0-2.4,0.5-3.3,1.4c-0.9,0.9-1.4,2-1.4,3.3c0,1.3,0.5,2.4,1.4,3.3c0.9,0.9,2,1.4,3.3,1.4c1.3,0,2.4-0.5,3.3-1.4c0,0,0,0,0,0
	V68.8z"/>
<path class="st0" d="M3,12.6c-0.4,0.4-0.6,0.8-0.6,1.3v33.8c0,0.5,0.2,1,0.6,1.3c0.4,0.4,0.8,0.6,1.3,0.6h22.5c0.5,0,1-0.2,1.3-0.6
	c0.4-0.4,0.6-0.8,0.6-1.3c0-0.5-0.2-1-0.6-1.3c-0.4-0.4-0.8-0.6-1.3-0.6H6.2V32.7h15c0.5,0,1-0.2,1.3-0.6c0.4-0.4,0.6-0.8,0.6-1.3
	s-0.2-1-0.6-1.3c-0.4-0.4-0.8-0.6-1.3-0.6h-15V15.8h20.6c0.5,0,1-0.2,1.3-0.6c0.4-0.4,0.6-0.8,0.6-1.3s-0.2-1-0.6-1.3
	c-0.4-0.4-0.8-0.6-1.3-0.6H4.3C3.8,12,3.3,12.2,3,12.6z"/>
<path class="st0" d="M78.5,34.5c0.3-1.8,1.2-3.4,2.6-4.8c1.8-1.8,4-2.7,6.6-2.7c2.6,0,4.8,0.9,6.6,2.7c1.4,1.4,2.2,3,2.6,4.8H78.5z
	 M93.8,43.6c-1.7,1.5-3.7,2.2-6,2.2c-2.6,0-4.8-0.9-6.6-2.7c-1.4-1.4-2.2-3-2.6-4.8H99c0.5,0,1-0.2,1.3-0.6c0.4-0.4,0.6-0.8,0.6-1.3
	c0-3.6-1.3-6.7-3.8-9.3c-2.6-2.6-5.7-3.8-9.3-3.8c-3.6,0-6.7,1.3-9.3,3.8c-2.6,2.6-3.8,5.7-3.8,9.3c0,3.6,1.3,6.7,3.8,9.3
	c2.6,2.6,5.7,3.8,9.3,3.8c3.3,0,6.1-1.1,8.6-3.2c0.4-0.4,0.5-0.8,0.5-1.3c0-0.5-0.2-1-0.6-1.3c-0.4-0.4-0.8-0.6-1.3-0.6
	C94.5,43.2,94.1,43.3,93.8,43.6L93.8,43.6z"/>
<path class="st0" d="M123.8,43.5c-1.7,1.5-3.8,2.3-6.1,2.3c-2.6,0-4.8-0.9-6.6-2.7c-1.8-1.8-2.7-4-2.7-6.6c0-2.6,0.9-4.8,2.7-6.6
	c1.8-1.8,4-2.7,6.6-2.7c2.3,0,4.4,0.8,6.1,2.3c0.3,0.3,0.7,0.4,1.2,0.4c0.5,0,1-0.2,1.3-0.6c0.4-0.4,0.6-0.8,0.6-1.3
	c0-0.6-0.2-1.1-0.7-1.5c-2.4-2.1-5.3-3.2-8.6-3.2c-3.6,0-6.7,1.3-9.3,3.8c-2.6,2.6-3.8,5.7-3.8,9.3c0,3.6,1.3,6.7,3.8,9.3
	c2.6,2.6,5.7,3.8,9.3,3.8c3.3,0,6.1-1.1,8.6-3.2c0.4-0.4,0.6-0.9,0.6-1.4s-0.2-1-0.6-1.3c-0.4-0.4-0.8-0.6-1.3-0.6
	C124.5,43.1,124.2,43.2,123.8,43.5L123.8,43.5z"/>
<path class="st0" d="M138.3,40.2V27h3.8c0.5,0,1-0.2,1.3-0.6c0.4-0.4,0.6-0.8,0.6-1.3s-0.2-1-0.6-1.3c-0.4-0.4-0.8-0.6-1.3-0.6h-3.8
	v-9.4c0-0.5-0.2-1-0.6-1.3c-0.4-0.4-0.8-0.6-1.3-0.6c-0.5,0-1,0.2-1.3,0.6c-0.4,0.4-0.6,0.8-0.6,1.3v9.4h-1.9c-0.5,0-1,0.2-1.3,0.6
	c-0.4,0.4-0.6,0.8-0.6,1.3s0.2,1,0.6,1.3c0.4,0.4,0.8,0.6,1.3,0.6h1.9v13.1c0,6.3,3.1,9.4,9.4,9.4c0.5,0,1-0.2,1.3-0.6
	c0.4-0.4,0.6-0.8,0.6-1.3c0-0.5-0.2-1-0.6-1.3c-0.4-0.4-0.8-0.6-1.3-0.6C140.2,45.8,138.3,43.9,138.3,40.2L138.3,40.2z"/>
<path class="st0" d="M149.6,47.7c0,0.5,0.2,1,0.6,1.3c0.4,0.4,0.8,0.6,1.3,0.6c0.5,0,1-0.2,1.3-0.6c0.4-0.4,0.6-0.8,0.6-1.3V36.4
	c0-2.6,0.9-4.8,2.7-6.6c1.8-1.8,4-2.7,6.6-2.7c1.3,0,2.5,0.2,3.7,0.7c0.2,0.1,0.5,0.2,0.8,0.2c0.5,0,1-0.2,1.3-0.6
	c0.4-0.4,0.6-0.8,0.6-1.3s-0.2-1-0.5-1.3c-0.2-0.2-0.5-0.4-0.8-0.5c-1.5-0.6-3.2-0.9-5-0.9c-3.6,0-6.8,1.3-9.4,3.9v-2.1
	c0-0.5-0.2-1-0.6-1.3c-0.4-0.4-0.8-0.6-1.3-0.6c-0.5,0-1,0.2-1.3,0.6c-0.4,0.4-0.6,0.8-0.6,1.3V47.7z"/>
<path class="st0" d="M191.8,29.8c1.8,1.8,2.7,4,2.7,6.6c0,2.6-0.9,4.8-2.7,6.6c-1.8,1.8-4,2.7-6.6,2.7c-2.6,0-4.8-0.9-6.6-2.7
	c-1.8-1.8-2.7-4-2.7-6.6c0-2.6,0.9-4.8,2.7-6.6c1.8-1.8,4-2.7,6.6-2.7C187.8,27,190,27.9,191.8,29.8z M194.6,47.7
	c0,0.5,0.2,1,0.6,1.3c0.4,0.4,0.8,0.6,1.3,0.6c0.5,0,1-0.2,1.3-0.6c0.4-0.4,0.6-0.8,0.6-1.3V36.4c0-3.6-1.3-6.7-3.8-9.3
	c-2.6-2.6-5.7-3.8-9.3-3.8c-3.6,0-6.7,1.3-9.3,3.8c-2.6,2.6-3.8,5.7-3.8,9.3c0,3.6,1.3,6.7,3.8,9.3c2.6,2.6,5.7,3.8,9.3,3.8
	c3.6,0,6.8-1.3,9.4-3.9V47.7z"/>
<polyline class="st1" points="36.8,46.9 47.8,10.9 72.1,3.1 49.7,33.7 72.7,25 42.8,67.2 52.3,41 "/>
</svg>
